<svg width="204" height="23" viewBox="0 0 204 23" fill="none" xmlns="http://www.w3.org/2000/svg">
<path d="M110 5V1H106C103.791 1 102 2.79086 102 5V9H98V13H102V23H106V13H110V9H106V5H110Z" fill="white"/>
<path d="M16.138 14.51C17.094 14.201 18.318 16.55 19.621 17.449C20.599 18.13 21.348 17.983 21.348 17.983L24.821 17.933C24.821 17.933 26.636 17.821 25.778 16.379C25.707 16.259 25.275 15.31 23.193 13.357C21.016 11.314 21.311 11.645 23.932 8.11304C25.529 5.96004 26.168 4.64504 25.968 4.08504C25.776 3.54604 24.603 3.68604 24.603 3.68604L20.69 3.71304C20.309 3.71404 19.986 3.83204 19.839 4.22804C19.836 4.23204 19.218 5.89404 18.394 7.30704C16.653 10.296 15.958 10.455 15.67 10.268C15.009 9.83504 15.176 8.53104 15.176 7.60404C15.176 4.70704 15.608 3.49904 14.33 3.18704C13.903 3.08304 13.591 3.01504 12.502 3.00504C11.11 2.98404 9.92797 3.00504 9.25797 3.33404C8.81297 3.55704 8.47197 4.04604 8.67897 4.07404C8.93897 4.10904 9.52197 4.23404 9.83397 4.66004C10.235 5.21204 10.223 6.44904 10.223 6.44904C10.223 6.44904 10.452 9.86004 9.68297 10.283C9.15497 10.573 8.43297 9.98104 6.87997 7.26704C6.08697 5.87904 5.48797 4.34504 5.48797 4.34504C5.48797 4.34504 5.37197 4.06004 5.16197 3.90404C4.91197 3.71904 4.56197 3.66004 4.56197 3.66004L0.84797 3.68404C0.84797 3.68404 0.28997 3.70004 0.0849697 3.94604C-0.0970303 4.16404 0.0699697 4.61404 0.0699697 4.61404C0.0699697 4.61404 2.97897 11.495 6.27297 14.961C9.29297 18.143 12.725 17.932 12.725 17.932H14.28C14.28 17.932 14.749 17.878 14.989 17.62C15.213 17.38 15.203 16.929 15.203 16.929C15.203 16.929 15.172 14.82 16.138 14.51Z" fill="white"/>
<path fill-rule="evenodd" clip-rule="evenodd" d="M186 0H201C202.65 0 204 1.35 204 3V18C204 19.65 202.65 21 201 21H186C184.35 21 183 19.65 183 18V3C183 1.35 184.35 0 186 0ZM197 10.5C197 8.57 195.43 7 193.5 7C191.57 7 190 8.57 190 10.5C190 12.43 191.57 14 193.5 14C195.43 14 197 12.43 197 10.5ZM186 18V9H187.181C187.063 9.49127 187.002 9.99467 187 10.5C187 14.0899 189.91 17 193.5 17C197.09 17 200 14.0899 200 10.5C199.999 9.99464 199.938 9.49118 199.819 9H201V18H186ZM197 7H201V3H197V7Z" fill="white"/>
</svg>
